<svg width="20" height="21" viewBox="0 0 20 21" fill="none" xmlns="http://www.w3.org/2000/svg">
<path d="M17.619 0.144012H2.38095C1.06667 0.144012 0 1.21068 0 2.52496V17.7631C0 19.0773 1.06667 20.144 2.38095 20.144H17.619C18.9333 20.144 20 19.0773 20 17.7631V2.52496C20 1.21068 18.9333 0.144012 17.619 0.144012ZM6.19048 7.76306V16.8107H3.33333V7.76306H6.19048ZM3.33333 5.12973C3.33333 4.46306 3.90476 3.95354 4.7619 3.95354C5.61905 3.95354 6.15714 4.46306 6.19048 5.12973C6.19048 5.79639 5.65714 6.33449 4.7619 6.33449C3.90476 6.33449 3.33333 5.79639 3.33333 5.12973ZM16.6667 16.8107H13.8095C13.8095 16.8107 13.8095 12.4012 13.8095 12.0488C13.8095 11.0964 13.3333 10.144 12.1429 10.125H12.1048C10.9524 10.125 10.4762 11.1059 10.4762 12.0488C10.4762 12.4821 10.4762 16.8107 10.4762 16.8107H7.61905V7.76306H10.4762V8.98211C10.4762 8.98211 11.3952 7.76306 13.2429 7.76306C15.1333 7.76306 16.6667 9.06306 16.6667 11.6964V16.8107Z" fill="#110000" fill-opacity="0.7"/>
</svg>
