<svg width="19" height="19" viewBox="0 0 19 19" fill="none" xmlns="http://www.w3.org/2000/svg">
<path fill-rule="evenodd" clip-rule="evenodd" d="M9.375 0C4.19617 0 0 4.19617 0 9.375C0 13.5162 2.68555 17.0319 6.41174 18.2709C6.88171 18.3563 7.05261 18.0695 7.05261 17.8192C7.05261 17.5964 7.04346 17.0074 7.04041 16.2262C4.43115 16.7908 3.88184 14.9689 3.88184 14.9689C3.45459 13.8855 2.84119 13.5956 2.84119 13.5956C1.98975 13.0157 2.90527 13.028 2.90527 13.028C3.84521 13.0951 4.3396 13.9923 4.3396 13.9923C5.17578 15.4266 6.53381 15.0116 7.06787 14.7736C7.15332 14.1663 7.39746 13.7543 7.66296 13.5193C5.58166 13.2843 3.39355 12.4786 3.39355 8.88672C3.39355 7.86133 3.75977 7.02515 4.35791 6.36902C4.26331 6.13403 3.93982 5.17883 4.44946 3.88794C4.44946 3.88794 5.23682 3.6377 7.0282 4.84924C7.77588 4.64172 8.57849 4.53796 9.375 4.53491C10.1715 4.53796 10.9741 4.64172 11.7218 4.84924C13.5132 3.6377 14.2975 3.88794 14.2975 3.88794C14.8102 5.17883 14.4897 6.13403 14.3921 6.36902C14.9933 7.02515 15.3534 7.86133 15.3534 8.88672C15.3534 12.4878 13.1622 13.2782 11.0748 13.5132C11.4105 13.8 11.7096 14.3738 11.7096 15.2466C11.7096 16.5009 11.7004 17.511 11.7004 17.8192C11.7004 18.0695 11.8683 18.3624 12.3444 18.2709C16.0675 17.0288 18.75 13.5162 18.75 9.375C18.75 4.19617 14.5538 0 9.375 0Z" fill="#110000" fill-opacity="0.7"/>
</svg>
