<svg width="21" height="18" viewBox="0 0 21 18" fill="none" xmlns="http://www.w3.org/2000/svg">
<path d="M0.415003 0.644012C0.185921 0.644012 0 0.859177 0 1.12429V7.90352C0 10.8625 1.94345 13.4345 4.49613 13.6021C6.9434 13.7625 9.02542 11.7751 9.46076 9.1211C9.69731 9.49092 9.93775 9.83459 10.1805 10.1501L8.71586 17.344C8.68723 17.4871 8.71605 17.6363 8.79449 17.752C8.87375 17.8663 8.99334 17.934 9.12033 17.934H11.2448C11.4373 17.934 11.6032 17.7838 11.6476 17.5672C11.9053 16.3084 12.3094 14.3358 12.6754 12.5478L13.0531 12.801C13.9516 13.3394 14.8633 13.6115 15.7701 13.6115C18.7548 13.6115 21.1344 10.5574 20.6983 7.00769C20.4094 4.65625 18.847 2.71802 16.8408 2.21805C14.5048 1.63547 12.2531 3.02097 11.2853 5.32391C11.2853 5.32391 11.1779 5.5998 11.0916 5.87548C10.4068 4.50861 10.0047 3.09059 9.7939 2.06327C9.71712 1.68865 9.60211 1.0104 9.58883 0.966699C9.53114 0.773147 9.37454 0.644012 9.19733 0.644012H7.05504C6.82596 0.644012 6.64004 0.859177 6.64004 1.12429V7.99264C6.64004 9.12081 5.92923 10.1297 4.95896 10.2393C3.84592 10.3651 2.90502 9.35145 2.90502 8.08832V1.12429C2.90502 0.859177 2.7191 0.644012 2.49002 0.644012H0.415003ZM15.7701 5.44679C16.9143 5.44679 17.8451 6.52405 17.8451 7.84818C17.8451 9.17231 16.9143 10.2496 15.7701 10.2496C14.8467 10.2496 13.9912 9.60517 13.3919 9.04325C13.6106 7.97463 13.7574 7.2589 13.7599 7.24689C13.9956 6.18692 14.8226 5.44679 15.7701 5.44679Z" fill="#110000" fill-opacity="0.7"/>
</svg>
