<svg width="49" height="49" viewBox="0 0 49 49" fill="none" xmlns="http://www.w3.org/2000/svg">
<path fill-rule="evenodd" clip-rule="evenodd" d="M24.75 0.288086C11.4922 0.288086 0.75 11.3016 0.75 24.8943C0.75 35.7637 7.625 44.9911 17.1641 48.2431C18.3672 48.4673 18.8047 47.7144 18.8047 47.0576C18.8047 46.4729 18.7812 44.927 18.7734 42.8765C12.0938 44.3583 10.6875 39.5764 10.6875 39.5764C9.59375 36.7329 8.02344 35.972 8.02344 35.972C5.84375 34.4501 8.1875 34.4821 8.1875 34.4821C10.5938 34.6584 11.8594 37.0133 11.8594 37.0133C14 40.7779 17.4766 39.6885 18.8438 39.0638C19.0625 37.4698 19.6875 36.3885 20.3672 35.7717C15.0391 35.155 9.4375 33.0404 9.4375 23.6128C9.4375 20.9215 10.375 18.7268 11.9062 17.0046C11.6641 16.3879 10.8359 13.8808 12.1406 10.4926C12.1406 10.4926 14.1562 9.83583 18.7422 13.0157C20.6562 12.4711 22.7109 12.1987 24.75 12.1907C26.7891 12.1987 28.8438 12.4711 30.7578 13.0157C35.3438 9.83583 37.3516 10.4926 37.3516 10.4926C38.6641 13.8808 37.8438 16.3879 37.5938 17.0046C39.1328 18.7268 40.0547 20.9215 40.0547 23.6128C40.0547 33.0644 34.4453 35.1389 29.1016 35.7557C29.9609 36.5086 30.7266 38.0145 30.7266 40.3053C30.7266 43.5974 30.7031 46.2486 30.7031 47.0576C30.7031 47.7144 31.1328 48.4834 32.3516 48.2431C41.8828 44.9831 48.75 35.7637 48.75 24.8943C48.75 11.3016 38.0078 0.288086 24.75 0.288086Z" fill="black"/>
</svg>
